<svg width="36" height="41" viewBox="0 0 36 41" fill="none" xmlns="http://www.w3.org/2000/svg">
<g clip-path="url(#clip0_153_2997)">
<path d="M0.400154 10.4967C0.380497 11.7848 0.542328 13.0553 0.759354 14.3232C1.1403 16.5493 1.81856 18.683 2.74939 20.7408C2.82173 20.9009 2.75315 20.985 2.68499 21.0906C1.70106 22.6089 0.868916 24.1994 0.313595 25.9219C0.191074 26.3026 0.0810966 26.6853 0.0162811 27.0834C-0.0581551 27.542 0.12793 27.8526 0.505531 28.0712C0.674885 28.169 0.690357 28.2581 0.669449 28.4557C0.539402 29.6931 0.664433 30.8624 1.72656 31.7344C2.28063 32.1889 2.93882 32.3684 3.63046 32.4612C3.75716 32.4781 3.79856 32.4942 3.7994 32.6328C3.80023 32.8753 3.83494 33.1178 3.86212 33.3595C3.90268 33.7209 4.08709 33.9848 4.43793 34.109C4.76284 34.2241 5.0911 34.3367 5.42646 34.4159C5.68865 34.4777 5.8233 34.6238 5.89146 34.8667C6.19128 35.9325 6.62492 36.9472 7.14845 37.9223C7.69708 38.9448 8.42761 39.8209 9.43999 40.4293C10.2366 40.9082 11.0959 41.0851 12.0393 40.9408C13.4318 40.7275 14.2568 39.851 14.8681 38.7039C15.357 37.787 15.6639 36.8 15.9491 35.8075C15.9959 35.6442 16.0515 35.584 16.233 35.5914C17.3964 35.6393 18.5605 35.6446 19.7238 35.5947C19.9764 35.584 20.0613 35.6702 20.1299 35.9086C20.4201 36.9204 20.7195 37.931 21.2251 38.8677C21.7574 39.8535 22.4728 40.6504 23.6169 40.8987C25.2796 41.2596 26.6139 40.6318 27.7287 39.4385C28.9188 38.1644 29.5239 36.5937 30.0458 34.9838C30.1344 34.71 30.2469 34.5281 30.5563 34.4711C30.8235 34.4221 31.0803 34.3148 31.34 34.229C31.9747 34.0199 32.1801 33.7246 32.2357 32.9454C32.2687 32.4801 32.2683 32.4748 32.732 32.4109C33.0682 32.3647 33.3823 32.2566 33.6838 32.111C34.6899 31.6247 35.1775 30.789 35.3318 29.7265C35.3962 29.2823 35.4233 28.8409 35.3309 28.3971C35.31 28.2965 35.3184 28.1983 35.4325 28.1377C36.0581 27.806 36.0723 27.297 35.9184 26.6882C35.4572 24.8614 34.6673 23.176 33.6549 21.5963C33.3363 21.0988 33.2756 20.7181 33.5424 20.1761C34.1659 18.9111 34.5699 17.5607 34.9111 16.1958C35.2046 15.0219 35.4162 13.8352 35.5249 12.6283C35.6098 11.6871 35.6813 10.7446 35.6278 9.80333C35.5149 7.81811 35.1833 5.8795 34.0789 4.15785C32.7931 2.15406 30.9473 0.910464 28.6299 0.33218C26.1569 -0.285288 23.7528 -0.00357093 21.3881 0.865092C20.2006 1.30149 18.9992 1.69003 17.6987 1.6162C16.7942 1.56464 15.9366 1.3283 15.0906 1.03627C14.0331 0.670819 12.981 0.298358 11.8637 0.132132C10.8818 -0.0138827 9.90373 -0.0192448 8.91937 0.0747985C7.84553 0.177091 6.81769 0.44231 5.83041 0.872929C4.11302 1.62198 2.76361 2.77566 1.81354 4.37852C1.06378 5.64315 0.687431 7.02081 0.515564 8.46487C0.43528 9.14091 0.394299 9.81695 0.400154 10.4971V10.4967Z" fill="#757474"/>
<path d="M34.5933 10.6546C34.613 9.20851 34.4716 7.8288 34.0363 6.48951C33.2573 4.09305 31.654 2.48235 29.2718 1.59389C27.7785 1.03706 26.2493 0.957863 24.6816 1.108C23.4953 1.22143 22.3918 1.60462 21.2878 2.00843C20.1508 2.4242 18.975 2.68117 17.7564 2.63332C16.6508 2.5896 15.5874 2.32067 14.5558 1.92593C13.0617 1.35425 11.5233 0.989623 9.90919 1.02592C7.98649 1.06882 6.2093 1.56131 4.65415 2.71952C3.23198 3.77875 2.36053 5.19352 1.87839 6.86692C1.60784 7.80529 1.49201 8.76717 1.45312 9.734C1.35569 12.1544 1.72033 14.5203 2.3919 16.8442C2.68628 17.8634 3.03963 18.8624 3.42726 19.8503C3.50337 20.0445 3.61084 20.1856 3.8195 20.2697C5.3023 20.8674 6.81605 21.3673 8.38165 21.7076C9.41827 21.9328 10.4628 22.1131 11.5183 22.231C12.1786 22.3049 12.8363 22.3989 13.4974 22.4666C13.7003 22.4872 13.8349 22.5862 13.9679 22.7157C15.2073 23.9197 16.4484 25.122 17.6887 26.3252C17.9839 26.6119 17.9889 26.6148 18.2892 26.3252C19.4964 25.16 20.7116 24.003 21.9008 22.8205C22.1701 22.5524 22.4624 22.4364 22.8166 22.4146C24.0339 22.3395 25.2407 22.1758 26.4404 21.9741C27.5598 21.786 28.6629 21.5162 29.7489 21.1813C30.6295 20.9099 31.4931 20.596 32.3315 20.2153C32.4582 20.158 32.5468 20.0792 32.6012 19.9484C33.4041 18.0176 34.0041 16.0279 34.3349 13.9659C34.513 12.856 34.6238 11.7361 34.5941 10.6546H34.5933Z" fill="#FEFEFE"/>
<path d="M31.6176 24.8444C31.6578 24.8873 31.6979 24.9302 31.7377 24.9731C31.9012 25.1055 31.874 25.3043 31.8899 25.473C31.9676 26.2889 32.0693 27.1027 32.1102 27.9214C32.1215 28.1462 32.219 28.1966 32.4255 28.1533C33.2138 27.9887 33.9715 27.7408 34.6857 27.3679C34.8701 27.2718 34.9395 27.1596 34.8822 26.9365C34.4988 25.452 33.8828 24.0636 33.136 22.7272C32.8884 22.2842 32.6308 21.8466 32.3691 21.4118C32.2955 21.2893 32.239 21.2691 32.104 21.3277C29.6427 22.3919 27.0475 22.9322 24.3914 23.2284C24.3404 23.2341 24.2893 23.244 24.2387 23.2461C24.0184 23.2543 23.9506 23.3372 24.0309 23.5567C24.153 23.8904 24.2258 24.2397 24.3019 24.5866C24.3905 24.9917 24.2785 25.4268 23.8946 25.4677C23.121 25.8644 22.3482 26.2633 21.5734 26.6576C21.1899 26.8527 20.8479 26.7294 20.7805 26.3747C20.735 26.1359 20.8345 25.9684 21.0507 25.8574C21.7264 25.511 22.3972 25.155 23.0783 24.8197C23.2632 24.7289 23.3096 24.6353 23.2494 24.4443C23.1331 24.0747 23.0382 23.6986 22.9207 23.277C22.6384 23.5319 22.3708 23.7613 22.1174 24.0046C21.0779 25.0028 20.0437 26.0068 19.0046 27.0049C18.8357 27.167 18.6554 27.3188 18.4723 27.4657C18.2022 27.6826 17.8212 27.6797 17.5461 27.4496C16.7842 26.8131 16.0955 26.1 15.3708 25.4243C14.6975 24.797 14.036 24.1576 13.3757 23.5171C13.216 23.362 13.1332 23.3389 13.0655 23.5876C12.9814 23.8961 12.876 24.1997 12.7615 24.4988C12.6987 24.6629 12.7472 24.7372 12.8961 24.8126C13.548 25.1414 14.1937 25.4825 14.8435 25.8154C15.022 25.9069 15.1726 26.0047 15.1784 26.2357C15.1876 26.6032 14.8895 26.8824 14.5667 26.7199C13.6467 26.2571 12.6945 25.8496 11.8398 25.266C11.6859 25.1558 11.6763 24.9999 11.6964 24.8324C11.747 24.4064 11.8913 24.0034 12.0117 23.5946C12.0957 23.31 12.0585 23.2589 11.7637 23.2275C9.66371 23.0044 7.59882 22.615 5.59373 21.9476C5.0773 21.7756 4.57216 21.5731 4.07288 21.3578C3.88931 21.2786 3.77348 21.2831 3.65346 21.4885C3.47073 21.8008 3.30472 22.1283 3.05967 22.4034C2.94008 22.608 2.82048 22.8126 2.70047 23.0176C2.58966 23.3904 2.37222 23.7142 2.20579 24.0615C1.76504 24.9813 1.40124 25.9271 1.14156 26.913C1.08135 27.141 1.12484 27.2656 1.34563 27.3704C2.07281 27.716 2.82843 27.966 3.62001 28.1211C3.8592 28.1681 3.92025 28.1029 3.9307 27.8699C3.97001 27.0095 4.08668 26.1557 4.18536 25.3006C4.20878 25.0968 4.2644 24.9005 4.47306 24.7904C4.86739 24.5825 5.28639 24.8494 5.25001 25.3109C5.21237 25.7952 5.1463 26.2773 5.09779 26.7612C4.90209 28.7105 4.81846 30.6644 4.8515 32.6232C4.85359 32.7457 4.90168 32.8649 4.88244 32.9862C4.85108 33.1825 4.96189 33.2539 5.12707 33.3075C5.78275 33.5199 6.45013 33.6878 7.12379 33.8321C8.88467 34.2096 10.6677 34.408 12.4654 34.5102C14.1297 34.6051 15.7948 34.6249 17.4608 34.6348C17.7121 34.6365 17.7882 34.5552 17.7748 34.3213C17.7556 33.9877 17.7853 33.654 17.8237 33.3215C17.3424 32.9037 17.2316 32.4252 17.5068 31.9525C17.8476 31.3672 18.6237 31.3202 19.1334 31.8531C19.4909 32.2528 19.4399 32.8509 18.9942 33.2295C18.87 33.3351 18.8152 33.4349 18.8223 33.5888C18.8344 33.8519 18.8365 34.1159 18.8445 34.3791C18.8516 34.6154 18.9515 34.6307 19.1439 34.6336C19.7824 34.6427 20.4197 34.6059 21.0574 34.5985C23.619 34.5676 26.1719 34.429 28.6905 33.9254C29.4164 33.7802 30.1357 33.6065 30.8307 33.3442C31.0255 33.2708 31.1158 33.1767 31.133 32.9519C31.2187 31.8263 31.1731 30.7027 31.128 29.5775C31.0803 28.3925 30.9824 27.2116 30.875 26.0307C30.8528 25.7886 30.8035 25.5485 30.788 25.3064C30.7742 25.0927 30.8378 24.8956 31.0581 24.8036C31.2463 24.7252 31.4462 24.6415 31.6189 24.844L31.6176 24.8444Z" fill="white"/>
<path d="M21.5759 35.5681H21.0562C21.2648 36.4013 21.5299 37.1887 21.8812 37.946C22.0706 38.3547 22.286 38.7478 22.5578 39.1161C23.3418 40.1791 24.718 40.3441 25.8111 39.7567C27.0141 39.11 27.7112 38.0326 28.2686 36.8517C28.5701 36.2132 28.8281 35.5561 29.033 34.8425C26.8243 35.2835 24.6248 35.4951 22.4068 35.5276C22.1321 35.5821 21.8511 35.5087 21.5764 35.5685L21.5759 35.5681Z" fill="#FEFEFB"/>
<path d="M7.06943 35.0902C7.52815 36.6328 8.16919 38.081 9.37894 39.2079C9.90457 39.6975 10.5293 40.0336 11.2728 40.084C12.3546 40.1574 13.1248 39.6583 13.6935 38.7884C14.3057 37.8521 14.6223 36.8011 14.9254 35.7435C14.9622 35.6148 14.9593 35.5534 14.7887 35.5488C13.9047 35.5253 13.0199 35.5051 12.1376 35.4523C10.7631 35.3702 9.38814 35.282 8.03747 34.9842C7.6858 34.9066 7.32702 34.8596 6.949 34.7944C6.9929 34.9058 6.97994 35.0188 7.07361 35.0947C7.21118 35.0077 7.35461 35.0609 7.49177 35.0861C8.43222 35.2597 9.37308 35.4317 10.3282 35.5097C11.0859 35.5715 11.8423 35.6573 12.6034 35.6627C13.2001 35.6668 13.7922 35.7596 14.3906 35.7299C14.4985 35.7246 14.6762 35.6751 14.6812 35.857C14.6863 36.0376 14.606 36.1997 14.3806 36.2109C14.1238 36.2232 13.8658 36.2307 13.6095 36.2059C12.8012 36.128 11.9895 36.1057 11.1804 36.0422C9.96729 35.9473 8.77051 35.7679 7.58711 35.4919C7.44745 35.4593 7.34332 35.4016 7.27851 35.2688C7.23753 35.185 7.21202 35.0654 7.06943 35.0898V35.0902Z" fill="#FDFEFB"/>
<path d="M3.86295 31.5393C3.86295 30.8121 3.85668 30.0932 3.86797 29.3746C3.87048 29.2183 3.80775 29.1507 3.67519 29.1342C3.00739 29.0504 2.37387 28.8368 1.73325 28.6487C1.64209 28.6219 1.58188 28.5967 1.57686 28.7316C1.54508 29.5611 1.64376 30.3522 2.30488 30.954C2.71593 31.3281 3.23612 31.4638 3.86295 31.5393Z" fill="#FEFEFE"/>
<path d="M34.3997 28.6052C33.6851 28.8601 32.9959 29.0594 32.2847 29.1695C32.127 29.1938 32.1751 29.292 32.1768 29.3675C32.1931 30.0472 32.2182 30.7266 32.2341 31.4063C32.237 31.5329 32.2775 31.5532 32.4001 31.5338C33.6215 31.3387 34.398 30.4374 34.3993 29.2029C34.3993 29.0206 34.3993 28.8383 34.3993 28.6056L34.3997 28.6052Z" fill="#FEFEFE"/>
<path d="M17.8229 33.3219C17.7222 33.6424 17.6933 33.9728 17.7138 34.3044C17.7276 34.523 17.6665 34.6018 17.4261 34.6059C16.0993 34.6274 14.7749 34.5474 13.4494 34.5243C12.1936 34.5024 10.9366 34.3915 9.69009 34.2269C8.16966 34.026 6.66218 33.7505 5.19694 33.2836C4.98619 33.2163 4.90506 33.126 4.90757 32.9C4.92012 31.8539 4.86952 30.8059 4.92555 29.7627C4.98828 28.5855 5.03804 27.405 5.2099 26.2348C5.25799 25.9061 5.27347 25.5708 5.28099 25.2379C5.28768 24.9446 5.05393 24.686 4.79467 24.6633C4.5145 24.6386 4.23266 24.8205 4.18206 25.1125C4.09801 25.5984 4.04323 26.0901 3.98929 26.5805C3.93869 27.0416 3.89604 27.504 3.86761 27.9668C3.85381 28.1871 3.70536 28.0815 3.62842 28.0695C3.06975 27.9846 2.52614 27.8311 2.00845 27.6121C0.852236 27.1229 1.08223 27.3564 1.37661 26.2843C1.66222 25.2445 2.12554 24.2703 2.62441 23.3137C2.66957 23.2267 2.79209 23.1442 2.69968 23.0176C2.02393 24.2377 1.47446 25.5081 1.1023 26.8523C1.0241 27.1357 1.06759 27.2871 1.36448 27.429C2.12888 27.7944 2.93259 28.0175 3.75386 28.2036C3.93367 28.2444 3.96587 28.1854 3.97047 28.0452C3.99305 27.2949 4.09257 26.5508 4.17161 25.8055C4.19586 25.5753 4.22346 25.3431 4.28117 25.1195C4.35393 24.8395 4.55966 24.7277 4.83941 24.7801C5.07484 24.8242 5.24043 25.0395 5.2145 25.2952C5.14885 25.9395 5.06062 26.5821 5.00626 27.2273C4.84359 29.1593 4.71313 31.0929 4.83398 33.0336C4.84359 33.1854 4.88834 33.2724 5.06229 33.3306C6.25113 33.729 7.47383 33.9757 8.70992 34.172C11.6237 34.6352 14.5629 34.6666 17.5035 34.6893C17.7836 34.6913 17.8568 34.6187 17.8363 34.3543C17.8104 34.0116 17.8254 33.6655 17.8225 33.3211L17.8229 33.3219Z" fill="#F7FAFB"/>
<path d="M31.6177 24.8444C31.5955 24.6501 31.4358 24.6509 31.3133 24.6765C31.0578 24.7293 30.8056 24.8184 30.7596 25.1253C30.7404 25.2544 30.7358 25.3917 30.7567 25.52C30.9323 26.5875 30.9637 27.6677 31.0498 28.7422C31.1544 30.046 31.146 31.3556 31.1184 32.6636C31.1071 33.199 31.0686 33.22 30.5418 33.3949C29.4717 33.75 28.369 33.9546 27.2537 34.118C25.8044 34.3304 24.3496 34.4426 22.8852 34.4945C22.3424 34.5139 21.7984 34.5362 21.2556 34.5345C20.5569 34.5321 19.8631 34.6335 19.1631 34.6055C18.9536 34.5972 18.8579 34.5482 18.8809 34.3304C18.8947 34.1996 18.8821 34.0668 18.8834 33.9348C18.8859 33.6382 18.8667 33.3722 19.1435 33.1189C19.4462 32.8418 19.496 32.4285 19.3216 32.0255C19.2844 31.9393 19.2836 31.8172 19.1326 31.8535C19.4245 32.301 19.4237 32.8855 18.8453 33.2699C18.7667 33.3219 18.7634 33.3982 18.7671 33.4832C18.7814 33.8181 18.7977 34.1534 18.7972 34.4884C18.7972 34.655 18.8692 34.6917 19.0214 34.6892C20.5962 34.6632 22.171 34.6451 23.7441 34.5601C24.7502 34.5057 25.7538 34.4294 26.7511 34.2908C28.1938 34.0907 29.6289 33.8556 30.9971 33.3293C31.1422 33.2736 31.1778 33.2138 31.1861 33.0752C31.2907 31.3383 31.1945 29.6064 31.0699 27.874C31.0088 27.0247 30.9461 26.1767 30.8315 25.3323C30.7726 24.9005 31.1644 24.6637 31.6181 24.844L31.6177 24.8444Z" fill="#F7FAFB"/>
<path d="M23.8942 25.4675C24.1924 25.4547 24.3872 25.2353 24.3818 24.8785C24.3751 24.4499 24.2367 24.0391 24.0987 23.6431C23.9824 23.3095 24.1581 23.2822 24.3784 23.2633C25.2641 23.1861 26.1427 23.0587 27.0145 22.89C28.747 22.5546 30.4451 22.1026 32.0609 21.3878C32.2198 21.3176 32.2767 21.3457 32.3653 21.488C33.2096 22.8467 33.9456 24.2573 34.4862 25.7608C34.633 26.1683 34.7087 26.6001 34.8434 27.013C34.8965 27.1755 34.8216 27.2399 34.7141 27.3001C33.9765 27.7159 33.1699 27.9427 32.3486 28.1267C32.2344 28.1523 32.1826 28.0999 32.1726 27.9811C32.114 27.298 32.0551 26.6154 31.9852 25.9336C31.9534 25.6234 31.8982 25.3157 31.8472 25.008C31.8397 24.9618 31.7979 24.914 31.7381 24.9725C31.8987 25.3957 31.8681 25.8457 31.9217 26.2834C31.9907 26.846 32.017 27.4139 32.0584 27.9803C32.073 28.1828 32.1199 28.264 32.372 28.2104C33.1874 28.038 33.9702 27.7885 34.7083 27.4028C34.9124 27.296 34.9977 27.1665 34.9345 26.9281C34.4009 24.9053 33.4383 23.0756 32.3561 21.2978C32.2809 21.1745 32.2068 21.2273 32.1353 21.2595C30.7813 21.8745 29.3621 22.2869 27.9111 22.6041C26.833 22.8396 25.7479 23.0319 24.6486 23.1412C24.5465 23.1515 24.4466 23.1779 24.3454 23.1956C24.1986 23.2212 23.9854 23.1263 23.9197 23.2476C23.8674 23.3441 23.9816 23.5256 24.0155 23.6708C24.1029 24.042 24.2367 24.4017 24.2718 24.7861C24.3011 25.1058 24.1965 25.3351 23.8942 25.4671V25.4675Z" fill="#F7F9FA"/>
<path d="M3.05883 22.4039C3.12239 22.4628 3.14748 22.4043 3.17215 22.3643C3.34862 22.0797 3.53888 21.8025 3.69193 21.5063C3.78183 21.3323 3.88094 21.3265 4.03147 21.3921C5.40514 21.9893 6.834 22.4191 8.29882 22.7293C9.25599 22.9322 10.2178 23.1178 11.1958 23.2012C11.287 23.209 11.3752 23.2441 11.466 23.2548C12.0301 23.3208 12.0343 23.3208 11.8904 23.8512C11.7905 24.2208 11.6316 24.5792 11.655 24.9715C11.6621 25.0907 11.6316 25.2577 11.839 25.2664C11.6571 25.0231 11.7415 24.7615 11.803 24.5112C11.8933 24.1412 12.0008 23.7749 12.1175 23.4124C12.1718 23.2437 12.1267 23.2131 11.9582 23.1958C9.21627 22.9161 6.53418 22.3869 3.99844 21.2778C3.82783 21.2032 3.76302 21.2213 3.67729 21.3727C3.48034 21.7212 3.26582 22.0603 3.05841 22.403L3.05883 22.4039Z" fill="#F6F9FA"/>
<path d="M21.5759 35.5683C21.8536 35.5699 22.1337 35.6256 22.4064 35.5275C22.1283 35.5188 21.8511 35.5167 21.5759 35.5683Z" fill="#EDF0F1"/>
<path d="M20.1629 11.7186C19.4312 11.2983 18.6864 11.0814 17.881 11.1321C17.2136 11.1742 16.5755 11.3322 16.0277 11.7343C15.8701 11.8498 15.873 11.7916 15.8371 11.6456C15.5849 10.6252 15.0848 9.73837 14.2949 9.0281C13.1474 7.99651 11.806 7.54485 10.2466 7.70778C7.82465 7.96103 6.03701 9.75116 5.7146 12.0342C5.50678 13.5075 5.81873 14.8501 6.7345 16.0125C7.53403 17.0276 8.60034 17.6805 9.91379 17.8867C11.4639 18.1301 12.879 17.817 14.1105 16.8428C15.112 16.0508 15.6878 14.9994 15.9119 13.7575C15.9566 13.5084 15.9972 13.2576 15.9725 13.0031C15.9617 12.8905 16.0052 12.81 16.0905 12.7407C17.2262 11.8201 18.6392 11.7351 19.8058 12.5832C19.956 12.6921 20.002 12.808 20.0078 12.9874C20.0781 15.2028 21.4551 17.0634 23.5066 17.7114C26.0281 18.5075 28.6679 17.485 29.7752 15.1302C30.6772 13.2118 30.5104 11.321 29.2136 9.60844C28.3422 8.45765 27.1245 7.86163 25.6701 7.70324C23.3736 7.45287 21.3417 8.76412 20.5004 10.6536C20.3545 10.9816 20.2261 11.319 20.1629 11.7191V11.7186Z" fill="#757474"/>
<path d="M17.9818 18.0118C18.9373 17.9891 19.7092 17.7124 20.1801 16.8784C20.2942 16.6762 20.3578 16.4762 20.2081 16.258C20.0793 16.0707 19.902 16.0443 19.6962 16.0678C19.5315 16.0868 19.4566 16.2031 19.3843 16.3261C18.7566 17.3906 17.2801 17.3915 16.6529 16.3273C16.5107 16.0864 16.2769 15.9911 16.067 16.0885C15.8337 16.1965 15.7237 16.484 15.8425 16.7381C16.1548 17.4055 16.6859 17.8105 17.4173 17.9438C17.6167 17.9801 17.8179 18.044 17.9818 18.0118Z" fill="#757474"/>
<path d="M7.20534 30.1414C7.76066 30.9436 8.59447 31.1891 9.51192 31.2311C10.2525 31.2654 10.9818 31.2088 11.6236 30.7692C12.1463 30.4107 12.4595 29.9417 12.5252 29.3049C12.5963 28.6152 12.5486 27.926 12.5582 27.2368C12.5616 26.9872 12.4445 26.7938 12.2659 26.6296C12.1334 26.5422 11.9845 26.5211 11.829 26.5211C10.4591 26.5219 9.08874 26.5195 7.71884 26.5228C7.2183 26.524 6.97535 26.7393 6.92559 27.226C6.85492 27.9149 6.8913 28.6066 6.90175 29.2962C6.90635 29.5998 6.99793 29.8972 7.20576 30.1414H7.20534Z" fill="#757474"/>
<path d="M18.3443 30.3361C18.9277 30.3336 19.3157 29.9735 19.3132 29.4377C19.3111 28.9395 18.8821 28.5278 18.3615 28.5249C17.8208 28.5216 17.365 28.9448 17.3591 29.455C17.3529 29.9814 17.7526 30.3386 18.3443 30.3361Z" fill="#757474"/>
<path d="M7.20533 30.1413C6.92516 29.6245 6.91596 29.066 6.93645 28.5005C6.95109 28.0958 6.94231 27.69 6.95653 27.2853C6.97325 26.8056 7.19739 26.5759 7.68078 26.573C9.06741 26.5648 10.4536 26.5681 11.8402 26.5722C11.982 26.5726 12.1242 26.6097 12.2659 26.6299C12.1877 26.4901 12.0523 26.4913 11.9168 26.4913C10.4649 26.4913 9.01305 26.4901 7.56119 26.4922C7.24547 26.4926 6.96572 26.6708 6.92433 27.0032C6.80097 27.9956 6.69183 28.995 7.02594 29.9746C7.06274 30.0823 7.06818 30.0807 7.20491 30.1417L7.20533 30.1413Z" fill="#F8F9FA"/>
<path d="M22.1241 36.3077C23.1239 36.2496 24.1225 36.1997 25.1207 36.0842C26.0364 35.9778 26.9459 35.868 27.8375 35.6362C28.1331 35.5591 28.4417 35.5026 28.6939 35.3149C28.7904 35.2432 28.9134 35.1343 28.8594 35.0167C28.8047 34.8979 28.6746 35.0142 28.5843 35.0303C27.2257 35.2729 25.8612 35.4461 24.4804 35.5274C23.4869 35.5859 22.4954 35.6457 21.5002 35.6371C21.141 35.6342 21.1519 35.6367 21.2455 35.9691C21.3166 36.2211 21.4141 36.3857 21.7239 36.3127C21.8506 36.283 21.9903 36.3077 22.1241 36.3077Z" fill="#EDF0F1"/>
<path d="M7.06942 35.09C7.0782 35.0954 7.09368 35.0991 7.09493 35.1057C7.18233 35.5466 7.54445 35.5825 7.89738 35.6527C8.7889 35.83 9.67708 36.0082 10.5899 36.0725C11.4881 36.1361 12.3847 36.2182 13.285 36.261C13.6735 36.2796 14.0628 36.2973 14.4521 36.3052C14.621 36.3085 14.9112 35.8259 14.8313 35.6857C14.7941 35.6201 14.7243 35.6366 14.6658 35.6374C14.0289 35.6485 13.3937 35.6069 12.7577 35.5792C11.111 35.5079 9.47051 35.3907 7.85389 35.0488C7.65401 35.0067 7.44577 35.0005 7.25007 34.9461C7.08489 34.9003 7.07528 34.9791 7.0736 35.0942L7.06942 35.0896V35.09Z" fill="#EBEFF0"/>
<path d="M6.58314 12.843C6.56182 15.1863 8.46905 17.0882 10.8204 17.0948C13.1926 17.1018 15.0706 15.2452 15.0417 12.8818C15.0108 10.3517 13.1926 8.59787 10.7957 8.57395C8.431 8.55044 6.58272 10.4486 6.58314 12.843Z" fill="#FEFEFB"/>
<path d="M25.1821 8.56738C22.7007 8.58842 20.9478 10.4784 20.9315 12.9082C20.916 15.2164 22.83 17.1105 25.1612 17.0923C27.6397 17.0734 29.3863 15.1987 29.3759 12.7684C29.3654 10.3575 27.546 8.59626 25.1821 8.56738Z" fill="#FEFEFC"/>
<path d="M9.76578 27.4692C9.21004 27.4692 8.65388 27.4754 8.09814 27.4655C7.92921 27.4626 7.86314 27.4997 7.86607 27.68C7.87108 28.0248 7.84139 28.3696 7.84056 28.7144C7.83805 29.6986 8.16254 30.1284 9.13686 30.3033C9.688 30.4023 10.258 30.4019 10.8049 30.2088C11.3485 30.017 11.6458 29.6182 11.6509 29.0523C11.655 28.5853 11.6463 28.118 11.6555 27.6511C11.6584 27.5034 11.6115 27.4638 11.4644 27.4659C10.8982 27.4741 10.332 27.4692 9.76578 27.4692Z" fill="white"/>
<path d="M12.7669 13.1368C12.787 12.7186 12.677 12.3486 12.4453 12.0182C12.0376 11.437 11.1448 11.3855 10.661 11.9089C10.0472 12.5734 10.0881 13.786 10.7451 14.4101C11.2502 14.8902 12.0782 14.7859 12.4637 14.2018C12.6824 13.871 12.7924 13.5171 12.7665 13.1368H12.7669Z" fill="#757474"/>
<path d="M23.2666 13.1281C23.3084 13.5699 23.3757 13.9997 23.7065 14.3457C24.2166 14.8795 25.0279 14.8403 25.4464 14.2352C25.8818 13.6058 25.9336 12.9326 25.6037 12.2417C25.3858 11.7855 25.0216 11.5409 24.4972 11.5455C23.9745 11.55 23.6847 11.8862 23.4694 12.283C23.3326 12.5358 23.2452 12.8241 23.2666 13.1277V13.1281Z" fill="#757474"/>
</g>
<defs>
<clipPath id="clip0_153_2997">
<rect width="36" height="41" fill="white" transform="matrix(-1 0 0 1 36 0)"/>
</clipPath>
</defs>
</svg>
