<svg width="200" height="240" viewBox="0 0 200 240" fill="none" xmlns="http://www.w3.org/2000/svg">

  <!-- Stars -->
  <polygon points="18,16 20,22 26,22 21,26 23,32 18,28 13,32 15,26 10,22 16,22" fill="#FFD700" style="fill:rgb(255, 215, 0);stroke:none;color:rgb(255, 255, 255);stroke-width:1px;stroke-linecap:butt;stroke-linejoin:miter;opacity:1;font-family:&quot;Anthropic Sans&quot;, -apple-system, BlinkMacSystemFont, &quot;Segoe UI&quot;, sans-serif;font-size:16px;font-weight:400;text-anchor:start;dominant-baseline:auto"/>
  <polygon points="178,10 180,16 186,16 181,20 183,26 178,22 173,26 175,20 170,16 176,16" fill="#FF85A1" style="fill:rgb(255, 133, 161);stroke:none;color:rgb(255, 255, 255);stroke-width:1px;stroke-linecap:butt;stroke-linejoin:miter;opacity:1;font-family:&quot;Anthropic Sans&quot;, -apple-system, BlinkMacSystemFont, &quot;Segoe UI&quot;, sans-serif;font-size:16px;font-weight:400;text-anchor:start;dominant-baseline:auto"/>
  <polygon points="188,42 189.5,47 195,47 190.5,50 192,55 188,52 184,55 185.5,50 181,47 186.5,47" fill="#A8D8FF" style="fill:rgb(168, 216, 255);stroke:none;color:rgb(255, 255, 255);stroke-width:1px;stroke-linecap:butt;stroke-linejoin:miter;opacity:1;font-family:&quot;Anthropic Sans&quot;, -apple-system, BlinkMacSystemFont, &quot;Segoe UI&quot;, sans-serif;font-size:16px;font-weight:400;text-anchor:start;dominant-baseline:auto"/>
  <path d="M30 26 C30 24 28 23 27 24.5 C26 23 24 24 24 26 C24 28 27 31 27 31 C27 31 30 28 30 26Z" fill="#FF85A1" style="fill:rgb(255, 133, 161);stroke:none;color:rgb(255, 255, 255);stroke-width:1px;stroke-linecap:butt;stroke-linejoin:miter;opacity:1;font-family:&quot;Anthropic Sans&quot;, -apple-system, BlinkMacSystemFont, &quot;Segoe UI&quot;, sans-serif;font-size:16px;font-weight:400;text-anchor:start;dominant-baseline:auto"/>
  <path d="M176 58 C176 56.5 174.5 55.5 173.5 57 C172.5 55.5 171 56.5 171 58 C171 59.5 173.5 62 173.5 62 C173.5 62 176 59.5 176 58Z" fill="#FFD700" style="fill:rgb(255, 215, 0);stroke:none;color:rgb(255, 255, 255);stroke-width:1px;stroke-linecap:butt;stroke-linejoin:miter;opacity:1;font-family:&quot;Anthropic Sans&quot;, -apple-system, BlinkMacSystemFont, &quot;Segoe UI&quot;, sans-serif;font-size:16px;font-weight:400;text-anchor:start;dominant-baseline:auto"/>
  <circle cx="8" cy="105" r="4" fill="#FFD700" opacity="0.5" style="fill:rgb(255, 215, 0);stroke:none;color:rgb(255, 255, 255);stroke-width:1px;stroke-linecap:butt;stroke-linejoin:miter;opacity:0.5;font-family:&quot;Anthropic Sans&quot;, -apple-system, BlinkMacSystemFont, &quot;Segoe UI&quot;, sans-serif;font-size:16px;font-weight:400;text-anchor:start;dominant-baseline:auto"/>
  <circle cx="5" cy="120" r="3" fill="#FF85A1" opacity="0.5" style="fill:rgb(255, 133, 161);stroke:none;color:rgb(255, 255, 255);stroke-width:1px;stroke-linecap:butt;stroke-linejoin:miter;opacity:0.5;font-family:&quot;Anthropic Sans&quot;, -apple-system, BlinkMacSystemFont, &quot;Segoe UI&quot;, sans-serif;font-size:16px;font-weight:400;text-anchor:start;dominant-baseline:auto"/>
  <circle cx="193" cy="98" r="4" fill="#A8D8FF" opacity="0.5" style="fill:rgb(168, 216, 255);stroke:none;color:rgb(255, 255, 255);stroke-width:1px;stroke-linecap:butt;stroke-linejoin:miter;opacity:0.5;font-family:&quot;Anthropic Sans&quot;, -apple-system, BlinkMacSystemFont, &quot;Segoe UI&quot;, sans-serif;font-size:16px;font-weight:400;text-anchor:start;dominant-baseline:auto"/>
  <circle cx="196" cy="115" r="3" fill="#FFD700" opacity="0.5" style="fill:rgb(255, 215, 0);stroke:none;color:rgb(255, 255, 255);stroke-width:1px;stroke-linecap:butt;stroke-linejoin:miter;opacity:0.5;font-family:&quot;Anthropic Sans&quot;, -apple-system, BlinkMacSystemFont, &quot;Segoe UI&quot;, sans-serif;font-size:16px;font-weight:400;text-anchor:start;dominant-baseline:auto"/>

  <!-- Tooth outer pink -->
  <path d="M13.2 68C14.3 50.5 24 33 44.5 28.3C46.7 27.8 49 27.4 51.2 27.3&#10;           C53 27.5 54.9 27.5 56.8 27.3 C61 27.5 65 28.4 69 29.6&#10;           C73 30.8 76.9 32.4 80.9 33.5 C86.9 35.2 92.7 34.5 98.4 32.6&#10;           C103.2 31 107.9 29.3 112.9 28.4 C115 28 117.1 27.7 119.2 27.7&#10;           C121 27.8 122.8 27.8 124.6 27.7 C129.8 27.9 134.8 29.1 139.6 31.3&#10;           C152 37 159.1 46.8 162.1 59.7 C164.1 68.2 163.8 76.9 162.4 85.5&#10;           C160.8 95 157.8 104.1 153.8 112.8 C151.9 117 150.7 121.4 149.9 125.8&#10;           L149.2 128.1 C148.5 132 148.2 136 148 140.1&#10;           C147.9 141.4 147.6 142.6 147.8 143.9&#10;           C146.3 159.2 142.4 173.7 133 186.1&#10;           C130.8 189 128.2 191.5 124.9 193.2&#10;           C118.8 196.3 112.7 194.9 108.6 189.5&#10;           C105.7 185.8 104.2 181.5 102.9 177.1&#10;           C101.1 171.3 99.9 165.3 98 159.6&#10;           C97 156.6 95.8 153.8 93.9 151.3&#10;           C90.1 146.3 84.1 146.3 80.3 151.4&#10;           C77.9 154.6 76.7 158.3 75.6 162&#10;           C73.8 168.1 72.6 174.3 70.5 180.3&#10;           C69.3 183.9 67.8 187.3 65.3 190.2&#10;           C61.2 195 55.6 196.2 49.9 193.5&#10;           C45.3 191.3 42.1 187.6 39.3 183.4&#10;           C33.6 174.9 30.2 165.5 28.1 155.6&#10;           C26.8 149 26.3 142.2 25.9 135.5&#10;           C25.4 126.1 23.2 117.1 19.3 108.5&#10;           C15.5 100.1 13.1 91.1 11.8 82.1&#10;           C11.6 80.4 11.5 78.7 11.3 77&#10;           C11.6 75.6 11.3 74.1 11.3 72.7&#10;           C11.3 70.9 11.6 69.1 11.3 67.4 Z" fill="#FFB3CC" style="fill:rgb(255, 179, 204);stroke:none;color:rgb(255, 255, 255);stroke-width:1px;stroke-linecap:butt;stroke-linejoin:miter;opacity:1;font-family:&quot;Anthropic Sans&quot;, -apple-system, BlinkMacSystemFont, &quot;Segoe UI&quot;, sans-serif;font-size:16px;font-weight:400;text-anchor:start;dominant-baseline:auto"/>

  <!-- Tooth inner white -->
  <path d="M157 73 C155.5 56 146.8 44.8 132.2 39.9&#10;           C130.1 39.2 127.9 38.8 125.7 38.5&#10;           C123.1 38.3 120.5 38.4 117.9 38.7&#10;           C116.6 38.9 115.1 38.8 114.4 39.2&#10;           C111.8 39.8 109.3 40.6 106.6 41.3&#10;           C103.5 40.1 100.7 39.5 98 39.1&#10;           C94.9 38.7 92.2 39 89.5 39.8&#10;           C87.8 40.3 86.2 40.9 84.7 41.6&#10;           C82.9 41 81.1 40.4 79.4 40&#10;           C76 39 72.5 38.5 68.9 38.4&#10;           C67.2 38.4 65.4 38.3 63.6 38.5&#10;           C57.2 39.3 51.2 41.7 46.1 46.4&#10;           C37.7 54.4 34.4 65.4 33.9 77.4&#10;           C33.6 83.6 34.4 89.6 35.8 95.4&#10;           C38.3 106.4 43 116.5 46.4 127.3&#10;           C48.3 133.2 49.3 139.2 49.6 145.3&#10;           C50 155.3 49.1 165.4 51.9 175.2&#10;           C53.2 179.7 55.1 184 58.7 187.4&#10;           C60.1 188.7 61.8 189.4 63.6 189.1&#10;           C65.7 188.7 67.1 187.2 68.2 185.5&#10;           C71.3 181 73 175.9 74.5 170.8&#10;           C76.3 164.7 77.8 158.6 80.6 153&#10;           C83.2 147.8 87.2 144.5 93 144.6&#10;           C98.8 144.7 102.8 148 105.6 153.1&#10;           C108.1 157.7 109.6 162.9 111.2 168.1&#10;           C113 173.9 114.5 179.8 117.5 185.1&#10;           C118.8 187.3 120.3 189.2 122.6 190.2&#10;           C124.8 191.1 126.8 190.7 128.6 189.4&#10;           C131.6 187.4 133.9 184.4 135.9 181.4&#10;           C142.5 171.4 145.6 160.1 146.9 148.3&#10;           C147.7 141 147.6 133.7 148.1 126.4&#10;           C148.5 119.9 150 113.8 152.6 108.1&#10;           C156.3 100.3 158.8 92.1 159.7 83.6&#10;           C160.1 80 160 76.2 157 73Z" fill="#FFF0F5" style="fill:rgb(255, 240, 245);stroke:none;color:rgb(255, 255, 255);stroke-width:1px;stroke-linecap:butt;stroke-linejoin:miter;opacity:1;font-family:&quot;Anthropic Sans&quot;, -apple-system, BlinkMacSystemFont, &quot;Segoe UI&quot;, sans-serif;font-size:16px;font-weight:400;text-anchor:start;dominant-baseline:auto"/>

  <!-- Shine -->
  <path d="M62 48 C57 53 54 60 53 68 C52.5 73 53.5 74 55.5 72 C58 69 60 63 62.5 58 C64.5 54 65 49 62 48Z" fill="white" opacity="0.55" style="fill:rgb(255, 255, 255);stroke:none;color:rgb(255, 255, 255);stroke-width:1px;stroke-linecap:butt;stroke-linejoin:miter;opacity:0.55;font-family:&quot;Anthropic Sans&quot;, -apple-system, BlinkMacSystemFont, &quot;Segoe UI&quot;, sans-serif;font-size:16px;font-weight:400;text-anchor:start;dominant-baseline:auto"/>
  <path d="M73 44 C70 47 68.5 51 68 56 C67.7 59 68.5 60 70 58.5 C72 56 73.5 52 74.5 48 C75 45 74.5 43 73 44Z" fill="white" opacity="0.45" style="fill:rgb(255, 255, 255);stroke:none;color:rgb(255, 255, 255);stroke-width:1px;stroke-linecap:butt;stroke-linejoin:miter;opacity:0.45;font-family:&quot;Anthropic Sans&quot;, -apple-system, BlinkMacSystemFont, &quot;Segoe UI&quot;, sans-serif;font-size:16px;font-weight:400;text-anchor:start;dominant-baseline:auto"/>

  <!-- Eyes looking STRAIGHT FORWARD (pupils centered, not tilted) -->
  <!-- Left eye -->
  <ellipse cx="82" cy="92" rx="11" ry="12" fill="#FF85A1" style="fill:rgb(255, 133, 161);stroke:none;color:rgb(255, 255, 255);stroke-width:1px;stroke-linecap:butt;stroke-linejoin:miter;opacity:1;font-family:&quot;Anthropic Sans&quot;, -apple-system, BlinkMacSystemFont, &quot;Segoe UI&quot;, sans-serif;font-size:16px;font-weight:400;text-anchor:start;dominant-baseline:auto"/>
  <ellipse cx="82" cy="92" rx="6" ry="7" fill="white" style="fill:rgb(255, 255, 255);stroke:none;color:rgb(255, 255, 255);stroke-width:1px;stroke-linecap:butt;stroke-linejoin:miter;opacity:1;font-family:&quot;Anthropic Sans&quot;, -apple-system, BlinkMacSystemFont, &quot;Segoe UI&quot;, sans-serif;font-size:16px;font-weight:400;text-anchor:start;dominant-baseline:auto"/>
  <circle cx="82" cy="92" r="4" fill="#3A2020" style="fill:rgb(58, 32, 32);stroke:none;color:rgb(255, 255, 255);stroke-width:1px;stroke-linecap:butt;stroke-linejoin:miter;opacity:1;font-family:&quot;Anthropic Sans&quot;, -apple-system, BlinkMacSystemFont, &quot;Segoe UI&quot;, sans-serif;font-size:16px;font-weight:400;text-anchor:start;dominant-baseline:auto"/>
  <circle cx="84" cy="90" r="1.4" fill="white" style="fill:rgb(255, 255, 255);stroke:none;color:rgb(255, 255, 255);stroke-width:1px;stroke-linecap:butt;stroke-linejoin:miter;opacity:1;font-family:&quot;Anthropic Sans&quot;, -apple-system, BlinkMacSystemFont, &quot;Segoe UI&quot;, sans-serif;font-size:16px;font-weight:400;text-anchor:start;dominant-baseline:auto"/>
  <!-- Lashes left - pointing straight up -->
  <line x1="74" y1="83" x2="71" y2="78" stroke="#E05080" stroke-width="2" stroke-linecap="round" style="fill:none;stroke:rgb(224, 80, 128);color:rgb(255, 255, 255);stroke-width:2px;stroke-linecap:round;stroke-linejoin:miter;opacity:1;font-family:&quot;Anthropic Sans&quot;, -apple-system, BlinkMacSystemFont, &quot;Segoe UI&quot;, sans-serif;font-size:16px;font-weight:400;text-anchor:start;dominant-baseline:auto"/>
  <line x1="79" y1="80" x2="78" y2="75" stroke="#E05080" stroke-width="2" stroke-linecap="round" style="fill:none;stroke:rgb(224, 80, 128);color:rgb(255, 255, 255);stroke-width:2px;stroke-linecap:round;stroke-linejoin:miter;opacity:1;font-family:&quot;Anthropic Sans&quot;, -apple-system, BlinkMacSystemFont, &quot;Segoe UI&quot;, sans-serif;font-size:16px;font-weight:400;text-anchor:start;dominant-baseline:auto"/>
  <line x1="84" y1="80" x2="84" y2="75" stroke="#E05080" stroke-width="2" stroke-linecap="round" style="fill:none;stroke:rgb(224, 80, 128);color:rgb(255, 255, 255);stroke-width:2px;stroke-linecap:round;stroke-linejoin:miter;opacity:1;font-family:&quot;Anthropic Sans&quot;, -apple-system, BlinkMacSystemFont, &quot;Segoe UI&quot;, sans-serif;font-size:16px;font-weight:400;text-anchor:start;dominant-baseline:auto"/>
  <line x1="89" y1="81" x2="91" y2="76" stroke="#E05080" stroke-width="2" stroke-linecap="round" style="fill:none;stroke:rgb(224, 80, 128);color:rgb(255, 255, 255);stroke-width:2px;stroke-linecap:round;stroke-linejoin:miter;opacity:1;font-family:&quot;Anthropic Sans&quot;, -apple-system, BlinkMacSystemFont, &quot;Segoe UI&quot;, sans-serif;font-size:16px;font-weight:400;text-anchor:start;dominant-baseline:auto"/>

  <!-- Right eye -->
  <ellipse cx="118" cy="92" rx="11" ry="12" fill="#FF85A1" style="fill:rgb(255, 133, 161);stroke:none;color:rgb(255, 255, 255);stroke-width:1px;stroke-linecap:butt;stroke-linejoin:miter;opacity:1;font-family:&quot;Anthropic Sans&quot;, -apple-system, BlinkMacSystemFont, &quot;Segoe UI&quot;, sans-serif;font-size:16px;font-weight:400;text-anchor:start;dominant-baseline:auto"/>
  <ellipse cx="118" cy="92" rx="6" ry="7" fill="white" style="fill:rgb(255, 255, 255);stroke:none;color:rgb(255, 255, 255);stroke-width:1px;stroke-linecap:butt;stroke-linejoin:miter;opacity:1;font-family:&quot;Anthropic Sans&quot;, -apple-system, BlinkMacSystemFont, &quot;Segoe UI&quot;, sans-serif;font-size:16px;font-weight:400;text-anchor:start;dominant-baseline:auto"/>
  <circle cx="118" cy="92" r="4" fill="#3A2020" style="fill:rgb(58, 32, 32);stroke:none;color:rgb(255, 255, 255);stroke-width:1px;stroke-linecap:butt;stroke-linejoin:miter;opacity:1;font-family:&quot;Anthropic Sans&quot;, -apple-system, BlinkMacSystemFont, &quot;Segoe UI&quot;, sans-serif;font-size:16px;font-weight:400;text-anchor:start;dominant-baseline:auto"/>
  <circle cx="120" cy="90" r="1.4" fill="white" style="fill:rgb(255, 255, 255);stroke:none;color:rgb(255, 255, 255);stroke-width:1px;stroke-linecap:butt;stroke-linejoin:miter;opacity:1;font-family:&quot;Anthropic Sans&quot;, -apple-system, BlinkMacSystemFont, &quot;Segoe UI&quot;, sans-serif;font-size:16px;font-weight:400;text-anchor:start;dominant-baseline:auto"/>
  <!-- Lashes right - pointing straight up -->
  <line x1="126" y1="83" x2="129" y2="78" stroke="#E05080" stroke-width="2" stroke-linecap="round" style="fill:none;stroke:rgb(224, 80, 128);color:rgb(255, 255, 255);stroke-width:2px;stroke-linecap:round;stroke-linejoin:miter;opacity:1;font-family:&quot;Anthropic Sans&quot;, -apple-system, BlinkMacSystemFont, &quot;Segoe UI&quot;, sans-serif;font-size:16px;font-weight:400;text-anchor:start;dominant-baseline:auto"/>
  <line x1="121" y1="80" x2="122" y2="75" stroke="#E05080" stroke-width="2" stroke-linecap="round" style="fill:none;stroke:rgb(224, 80, 128);color:rgb(255, 255, 255);stroke-width:2px;stroke-linecap:round;stroke-linejoin:miter;opacity:1;font-family:&quot;Anthropic Sans&quot;, -apple-system, BlinkMacSystemFont, &quot;Segoe UI&quot;, sans-serif;font-size:16px;font-weight:400;text-anchor:start;dominant-baseline:auto"/>
  <line x1="116" y1="80" x2="116" y2="75" stroke="#E05080" stroke-width="2" stroke-linecap="round" style="fill:none;stroke:rgb(224, 80, 128);color:rgb(255, 255, 255);stroke-width:2px;stroke-linecap:round;stroke-linejoin:miter;opacity:1;font-family:&quot;Anthropic Sans&quot;, -apple-system, BlinkMacSystemFont, &quot;Segoe UI&quot;, sans-serif;font-size:16px;font-weight:400;text-anchor:start;dominant-baseline:auto"/>
  <line x1="111" y1="81" x2="109" y2="76" stroke="#E05080" stroke-width="2" stroke-linecap="round" style="fill:none;stroke:rgb(224, 80, 128);color:rgb(255, 255, 255);stroke-width:2px;stroke-linecap:round;stroke-linejoin:miter;opacity:1;font-family:&quot;Anthropic Sans&quot;, -apple-system, BlinkMacSystemFont, &quot;Segoe UI&quot;, sans-serif;font-size:16px;font-weight:400;text-anchor:start;dominant-baseline:auto"/>

  <!-- Blush cheeks -->
  <ellipse cx="66" cy="108" rx="12" ry="6" fill="#FF85A1" opacity="0.35" style="fill:rgb(255, 133, 161);stroke:none;color:rgb(255, 255, 255);stroke-width:1px;stroke-linecap:butt;stroke-linejoin:miter;opacity:0.35;font-family:&quot;Anthropic Sans&quot;, -apple-system, BlinkMacSystemFont, &quot;Segoe UI&quot;, sans-serif;font-size:16px;font-weight:400;text-anchor:start;dominant-baseline:auto"/>
  <ellipse cx="134" cy="108" rx="12" ry="6" fill="#FF85A1" opacity="0.35" style="fill:rgb(255, 133, 161);stroke:none;color:rgb(255, 255, 255);stroke-width:1px;stroke-linecap:butt;stroke-linejoin:miter;opacity:0.35;font-family:&quot;Anthropic Sans&quot;, -apple-system, BlinkMacSystemFont, &quot;Segoe UI&quot;, sans-serif;font-size:16px;font-weight:400;text-anchor:start;dominant-baseline:auto"/>

  <!-- Nose -->
  <circle cx="100" cy="109" r="2.5" fill="#FFB3CC" style="fill:rgb(255, 179, 204);stroke:none;color:rgb(255, 255, 255);stroke-width:1px;stroke-linecap:butt;stroke-linejoin:miter;opacity:1;font-family:&quot;Anthropic Sans&quot;, -apple-system, BlinkMacSystemFont, &quot;Segoe UI&quot;, sans-serif;font-size:16px;font-weight:400;text-anchor:start;dominant-baseline:auto"/>

  <!-- Smile -->
  <path d="M84 118 Q100 133 116 118" stroke="#E05080" stroke-width="3.5" fill="none" stroke-linecap="round" style="fill:none;stroke:rgb(224, 80, 128);color:rgb(255, 255, 255);stroke-width:3.5px;stroke-linecap:round;stroke-linejoin:miter;opacity:1;font-family:&quot;Anthropic Sans&quot;, -apple-system, BlinkMacSystemFont, &quot;Segoe UI&quot;, sans-serif;font-size:16px;font-weight:400;text-anchor:start;dominant-baseline:auto"/>

</svg>