<svg width="200" height="240" viewBox="0 0 200 240" fill="none" xmlns="http://www.w3.org/2000/svg">

  <defs>
    <linearGradient id="toothGrad" x1="60" y1="27" x2="160" y2="210">
      <stop stop-color="#FFFFFF"/>
      <stop offset="1" stop-color="#E5F3FF"/>
    </linearGradient>
    <linearGradient id="metalGrad" x1="75" y1="55" x2="125" y2="90">
      <stop stop-color="#D1D5DB"/>
      <stop offset="0.5" stop-color="#9CA3AF"/>
      <stop offset="1" stop-color="#6B7280"/>
    </linearGradient>
  </defs>

  <!-- شكل السنة -->
  <path d="M13.2 68C14.3 50.5 24 33 44.5 28.3C46.7 27.8 49 27.4 51.2 27.3&#10;           C53 27.5 54.9 27.5 56.8 27.3 C61 27.5 65 28.4 69 29.6&#10;           C73 30.8 76.9 32.4 80.9 33.5 C86.9 35.2 92.7 34.5 98.4 32.6&#10;           C103.2 31 107.9 29.3 112.9 28.4 C115 28 117.1 27.7 119.2 27.7&#10;           C121 27.8 122.8 27.8 124.6 27.7 C129.8 27.9 134.8 29.1 139.6 31.3&#10;           C152 37 159.1 46.8 162.1 59.7 C164.1 68.2 163.8 76.9 162.4 85.5&#10;           C160.8 95 157.8 104.1 153.8 112.8 C151.9 117 150.7 121.4 149.9 125.8&#10;           L149.2 128.1 C148.5 132 148.2 136 148 140.1&#10;           C147.9 141.4 147.6 142.6 147.8 143.9&#10;           C146.3 159.2 142.4 173.7 133 186.1&#10;           C130.8 189 128.2 191.5 124.9 193.2&#10;           C118.8 196.3 112.7 194.9 108.6 189.5&#10;           C105.7 185.8 104.2 181.5 102.9 177.1&#10;           C101.1 171.3 99.9 165.3 98 159.6&#10;           C97 156.6 95.8 153.8 93.9 151.3&#10;           C90.1 146.3 84.1 146.3 80.3 151.4&#10;           C77.9 154.6 76.7 158.3 75.6 162&#10;           C73.8 168.1 72.6 174.3 70.5 180.3&#10;           C69.3 183.9 67.8 187.3 65.3 190.2&#10;           C61.2 195 55.6 196.2 49.9 193.5&#10;           C45.3 191.3 42.1 187.6 39.3 183.4&#10;           C33.6 174.9 30.2 165.5 28.1 155.6&#10;           C26.8 149 26.3 142.2 25.9 135.5&#10;           C25.4 126.1 23.2 117.1 19.3 108.5&#10;           C15.5 100.1 13.1 91.1 11.8 82.1&#10;           C11.6 80.4 11.5 78.7 11.3 77&#10;           C11.3 72.7 11.3 70.9 11.3 67.4Z" fill="url(#toothGrad)" stroke="#334155" stroke-width="4" style="stroke:rgb(51, 65, 85);color:rgb(255, 255, 255);stroke-width:4px;stroke-linecap:butt;stroke-linejoin:miter;opacity:1;font-family:&quot;Anthropic Sans&quot;, -apple-system, BlinkMacSystemFont, &quot;Segoe UI&quot;, sans-serif;font-size:16px;font-weight:400;text-anchor:start;dominant-baseline:auto"/>

  <!-- الحفرة في وسط أعلى السنة -->
  <path d="M72 58 C72 49 79 43 88 43H112C122 43 129 50 129 60C129 68 124 74 117 77L112 79C107 81 93 81 88 79L83 77C76 74 72 67 72 58Z" fill="url(#metalGrad)" stroke="#4B5563" stroke-width="2.5" style="stroke:rgb(75, 85, 99);color:rgb(255, 255, 255);stroke-width:2.5px;stroke-linecap:butt;stroke-linejoin:miter;opacity:1;font-family:&quot;Anthropic Sans&quot;, -apple-system, BlinkMacSystemFont, &quot;Segoe UI&quot;, sans-serif;font-size:16px;font-weight:400;text-anchor:start;dominant-baseline:auto"/>

  <!-- عين شمال - بتبص للأمام مباشرة -->
  <ellipse cx="78" cy="112" rx="12" ry="13" fill="#9CA3AF" style="fill:rgb(156, 163, 175);stroke:none;color:rgb(255, 255, 255);stroke-width:1px;stroke-linecap:butt;stroke-linejoin:miter;opacity:1;font-family:&quot;Anthropic Sans&quot;, -apple-system, BlinkMacSystemFont, &quot;Segoe UI&quot;, sans-serif;font-size:16px;font-weight:400;text-anchor:start;dominant-baseline:auto"/>
  <ellipse cx="78" cy="112" rx="7" ry="8" fill="white" style="fill:rgb(255, 255, 255);stroke:none;color:rgb(255, 255, 255);stroke-width:1px;stroke-linecap:butt;stroke-linejoin:miter;opacity:1;font-family:&quot;Anthropic Sans&quot;, -apple-system, BlinkMacSystemFont, &quot;Segoe UI&quot;, sans-serif;font-size:16px;font-weight:400;text-anchor:start;dominant-baseline:auto"/>
  <circle cx="78" cy="112" r="4" fill="#334155" style="fill:rgb(51, 65, 85);stroke:none;color:rgb(255, 255, 255);stroke-width:1px;stroke-linecap:butt;stroke-linejoin:miter;opacity:1;font-family:&quot;Anthropic Sans&quot;, -apple-system, BlinkMacSystemFont, &quot;Segoe UI&quot;, sans-serif;font-size:16px;font-weight:400;text-anchor:start;dominant-baseline:auto"/>
  <circle cx="80" cy="110" r="1.4" fill="white" style="fill:rgb(255, 255, 255);stroke:none;color:rgb(255, 255, 255);stroke-width:1px;stroke-linecap:butt;stroke-linejoin:miter;opacity:1;font-family:&quot;Anthropic Sans&quot;, -apple-system, BlinkMacSystemFont, &quot;Segoe UI&quot;, sans-serif;font-size:16px;font-weight:400;text-anchor:start;dominant-baseline:auto"/>
  <!-- رموش فوق بالظبط -->
  <line x1="66" y1="101" x2="63" y2="95" stroke="#4B5563" stroke-width="2" stroke-linecap="round" style="fill:none;stroke:rgb(75, 85, 99);color:rgb(255, 255, 255);stroke-width:2px;stroke-linecap:round;stroke-linejoin:miter;opacity:1;font-family:&quot;Anthropic Sans&quot;, -apple-system, BlinkMacSystemFont, &quot;Segoe UI&quot;, sans-serif;font-size:16px;font-weight:400;text-anchor:start;dominant-baseline:auto"/>
  <line x1="72" y1="99" x2="71" y2="93" stroke="#4B5563" stroke-width="2" stroke-linecap="round" style="fill:none;stroke:rgb(75, 85, 99);color:rgb(255, 255, 255);stroke-width:2px;stroke-linecap:round;stroke-linejoin:miter;opacity:1;font-family:&quot;Anthropic Sans&quot;, -apple-system, BlinkMacSystemFont, &quot;Segoe UI&quot;, sans-serif;font-size:16px;font-weight:400;text-anchor:start;dominant-baseline:auto"/>
  <line x1="78" y1="98" x2="78" y2="92" stroke="#4B5563" stroke-width="2" stroke-linecap="round" style="fill:none;stroke:rgb(75, 85, 99);color:rgb(255, 255, 255);stroke-width:2px;stroke-linecap:round;stroke-linejoin:miter;opacity:1;font-family:&quot;Anthropic Sans&quot;, -apple-system, BlinkMacSystemFont, &quot;Segoe UI&quot;, sans-serif;font-size:16px;font-weight:400;text-anchor:start;dominant-baseline:auto"/>
  <line x1="84" y1="100" x2="86" y2="94" stroke="#4B5563" stroke-width="2" stroke-linecap="round" style="fill:none;stroke:rgb(75, 85, 99);color:rgb(255, 255, 255);stroke-width:2px;stroke-linecap:round;stroke-linejoin:miter;opacity:1;font-family:&quot;Anthropic Sans&quot;, -apple-system, BlinkMacSystemFont, &quot;Segoe UI&quot;, sans-serif;font-size:16px;font-weight:400;text-anchor:start;dominant-baseline:auto"/>

  <!-- عين يمين - بتبص للأمام مباشرة -->
  <ellipse cx="122" cy="112" rx="12" ry="13" fill="#9CA3AF" style="fill:rgb(156, 163, 175);stroke:none;color:rgb(255, 255, 255);stroke-width:1px;stroke-linecap:butt;stroke-linejoin:miter;opacity:1;font-family:&quot;Anthropic Sans&quot;, -apple-system, BlinkMacSystemFont, &quot;Segoe UI&quot;, sans-serif;font-size:16px;font-weight:400;text-anchor:start;dominant-baseline:auto"/>
  <ellipse cx="122" cy="112" rx="7" ry="8" fill="white" style="fill:rgb(255, 255, 255);stroke:none;color:rgb(255, 255, 255);stroke-width:1px;stroke-linecap:butt;stroke-linejoin:miter;opacity:1;font-family:&quot;Anthropic Sans&quot;, -apple-system, BlinkMacSystemFont, &quot;Segoe UI&quot;, sans-serif;font-size:16px;font-weight:400;text-anchor:start;dominant-baseline:auto"/>
  <circle cx="122" cy="112" r="4" fill="#334155" style="fill:rgb(51, 65, 85);stroke:none;color:rgb(255, 255, 255);stroke-width:1px;stroke-linecap:butt;stroke-linejoin:miter;opacity:1;font-family:&quot;Anthropic Sans&quot;, -apple-system, BlinkMacSystemFont, &quot;Segoe UI&quot;, sans-serif;font-size:16px;font-weight:400;text-anchor:start;dominant-baseline:auto"/>
  <circle cx="124" cy="110" r="1.4" fill="white" style="fill:rgb(255, 255, 255);stroke:none;color:rgb(255, 255, 255);stroke-width:1px;stroke-linecap:butt;stroke-linejoin:miter;opacity:1;font-family:&quot;Anthropic Sans&quot;, -apple-system, BlinkMacSystemFont, &quot;Segoe UI&quot;, sans-serif;font-size:16px;font-weight:400;text-anchor:start;dominant-baseline:auto"/>
  <!-- رموش فوق بالظبط -->
  <line x1="134" y1="101" x2="137" y2="95" stroke="#4B5563" stroke-width="2" stroke-linecap="round" style="fill:none;stroke:rgb(75, 85, 99);color:rgb(255, 255, 255);stroke-width:2px;stroke-linecap:round;stroke-linejoin:miter;opacity:1;font-family:&quot;Anthropic Sans&quot;, -apple-system, BlinkMacSystemFont, &quot;Segoe UI&quot;, sans-serif;font-size:16px;font-weight:400;text-anchor:start;dominant-baseline:auto"/>
  <line x1="128" y1="99" x2="129" y2="93" stroke="#4B5563" stroke-width="2" stroke-linecap="round" style="fill:none;stroke:rgb(75, 85, 99);color:rgb(255, 255, 255);stroke-width:2px;stroke-linecap:round;stroke-linejoin:miter;opacity:1;font-family:&quot;Anthropic Sans&quot;, -apple-system, BlinkMacSystemFont, &quot;Segoe UI&quot;, sans-serif;font-size:16px;font-weight:400;text-anchor:start;dominant-baseline:auto"/>
  <line x1="122" y1="98" x2="122" y2="92" stroke="#4B5563" stroke-width="2" stroke-linecap="round" style="fill:none;stroke:rgb(75, 85, 99);color:rgb(255, 255, 255);stroke-width:2px;stroke-linecap:round;stroke-linejoin:miter;opacity:1;font-family:&quot;Anthropic Sans&quot;, -apple-system, BlinkMacSystemFont, &quot;Segoe UI&quot;, sans-serif;font-size:16px;font-weight:400;text-anchor:start;dominant-baseline:auto"/>
  <line x1="116" y1="100" x2="114" y2="94" stroke="#4B5563" stroke-width="2" stroke-linecap="round" style="fill:none;stroke:rgb(75, 85, 99);color:rgb(255, 255, 255);stroke-width:2px;stroke-linecap:round;stroke-linejoin:miter;opacity:1;font-family:&quot;Anthropic Sans&quot;, -apple-system, BlinkMacSystemFont, &quot;Segoe UI&quot;, sans-serif;font-size:16px;font-weight:400;text-anchor:start;dominant-baseline:auto"/>

  <!-- خدود -->
  <ellipse cx="60" cy="126" rx="11" ry="6" fill="#D1D5DB" opacity="0.5" style="fill:rgb(209, 213, 219);stroke:none;color:rgb(255, 255, 255);stroke-width:1px;stroke-linecap:butt;stroke-linejoin:miter;opacity:0.5;font-family:&quot;Anthropic Sans&quot;, -apple-system, BlinkMacSystemFont, &quot;Segoe UI&quot;, sans-serif;font-size:16px;font-weight:400;text-anchor:start;dominant-baseline:auto"/>
  <ellipse cx="140" cy="126" rx="11" ry="6" fill="#D1D5DB" opacity="0.5" style="fill:rgb(209, 213, 219);stroke:none;color:rgb(255, 255, 255);stroke-width:1px;stroke-linecap:butt;stroke-linejoin:miter;opacity:0.5;font-family:&quot;Anthropic Sans&quot;, -apple-system, BlinkMacSystemFont, &quot;Segoe UI&quot;, sans-serif;font-size:16px;font-weight:400;text-anchor:start;dominant-baseline:auto"/>

  <!-- أنف -->
  <circle cx="100" cy="125" r="2.5" fill="#9CA3AF" style="fill:rgb(156, 163, 175);stroke:none;color:rgb(255, 255, 255);stroke-width:1px;stroke-linecap:butt;stroke-linejoin:miter;opacity:1;font-family:&quot;Anthropic Sans&quot;, -apple-system, BlinkMacSystemFont, &quot;Segoe UI&quot;, sans-serif;font-size:16px;font-weight:400;text-anchor:start;dominant-baseline:auto"/>

  <!-- ابتسامة -->
  <path d="M82 135 Q100 150 118 135" stroke="#4B5563" stroke-width="3.5" fill="none" stroke-linecap="round" style="fill:none;stroke:rgb(75, 85, 99);color:rgb(255, 255, 255);stroke-width:3.5px;stroke-linecap:round;stroke-linejoin:miter;opacity:1;font-family:&quot;Anthropic Sans&quot;, -apple-system, BlinkMacSystemFont, &quot;Segoe UI&quot;, sans-serif;font-size:16px;font-weight:400;text-anchor:start;dominant-baseline:auto"/>

</svg>